<?xml version="1.0" encoding="UTF-8"?>
<svg xmlns="http://www.w3.org/2000/svg" viewBox="0 0 532 532" width="532" height="532">
<path d="M262.75 10.42C269.74 8.7 275.69 13.3 281.2 16.84C293.25 24.58 305.46 32.16 317.65 39.68C367.95 70.71 417.69 102.61 467.9 133.81C481.16 142.05 494.32 150.53 507.61 158.71C514.11 162.72 521.43 166.53 521.93 175.15C522.45 183.95 515.78 188.15 509.25 192.24C495.29 200.98 481.33 209.68 467.32 218.34C419.62 247.83 372.12 277.66 324.46 307.24C311.09 315.54 297.73 323.9 284.37 332.22C278.89 335.63 272.77 340.96 266 340.96C259.23 340.96 253.11 335.63 247.63 332.22C234.27 323.9 220.91 315.54 207.54 307.24C159.78 277.59 112.09 247.83 64.35 218.15C50.47 209.51 36.6 200.92 22.75 192.24C15.8 187.89 8.75 183.15 10.23 173.69C11.54 165.29 19.47 161.86 25.87 157.77C40.12 148.67 54.58 139.86 68.87 130.82C112.94 102.93 156.98 74.87 201.5 47.74C214.96 39.54 228.14 30.95 241.53 22.65C248.06 18.61 255.2 12.27 262.75 10.42ZM40.57 238.93C47.8 242.33 54.55 247.55 61.37 251.76C73.76 259.41 86.2 267.05 98.49 274.87C133.33 297.02 168.79 318.17 203.68 340.24C217.57 349.02 231.56 357.73 245.58 366.32C251.71 370.08 258.5 376.21 266 376.21C273.5 376.21 280.29 370.08 286.42 366.32C300.44 357.73 314.43 349.02 328.32 340.24C363.21 318.17 398.67 297.02 433.51 274.87C445.8 267.05 458.24 259.41 470.63 251.76C477.45 247.55 484.2 242.33 491.43 238.93C495.4 240.17 499.21 243.48 502.76 245.68C512.34 251.61 528.59 259.52 519.81 273.7C516.2 279.53 508.41 282.81 502.74 286.3C489.93 294.19 477.1 302.12 464.39 310.16C419.03 338.88 373.54 367.63 327.56 395.33C313.57 403.76 299.81 412.59 285.96 421.24C280.1 424.9 273.24 430.96 266 430.96C258.76 430.96 251.9 424.9 246.04 421.24C232.19 412.59 218.43 403.76 204.44 395.33C158.46 367.63 112.97 338.88 67.61 310.16C54.9 302.12 42.07 294.19 29.26 286.3C23.59 282.81 15.8 279.53 12.19 273.7C3.41 259.52 19.66 251.61 29.24 245.68C32.79 243.48 36.6 240.17 40.57 238.93ZM40.57 328.93C46.71 331.76 52.59 336.19 58.29 339.84C69.96 347.31 81.89 354.47 93.63 361.84C130.18 384.79 167.12 407.15 203.61 430.2C217.53 438.98 231.53 447.6 245.52 456.27C251.63 460.06 258.5 466.22 266 466.22C273.5 466.22 280.37 460.06 286.48 456.27C300.47 447.6 314.47 438.98 328.39 430.2C364.88 407.15 401.82 384.79 438.37 361.84C450.11 354.47 462.04 347.31 473.71 339.84C479.41 336.19 485.29 331.76 491.43 328.93C495.35 330.08 499.21 333.49 502.7 335.64C512.27 341.52 528.53 349.49 519.85 363.62C516.26 369.48 508.51 372.78 502.84 376.29C490.06 384.21 477.44 392.41 464.62 400.24C418.61 428.33 373.01 457.24 327.52 486.14C313.63 494.97 299.72 503.74 285.69 512.35C279.83 515.95 273.24 521.96 266 521.96C258.76 521.96 252.17 515.95 246.31 512.35C232.28 503.74 218.37 494.97 204.48 486.14C158.99 457.24 113.39 428.33 67.38 400.24C54.56 392.41 41.94 384.21 29.16 376.29C23.49 372.78 15.74 369.48 12.15 363.62C3.47 349.49 19.73 341.52 29.3 335.64C32.79 333.49 36.65 330.08 40.57 328.93Z" fill="#355a59" fill-rule="evenodd" stroke="#355a59" stroke-width="0.25" stroke-linejoin="round"/>
</svg>